<svg width="35" height="35" viewBox="0 0 35 35" fill="none" xmlns="http://www.w3.org/2000/svg">
<path d="M0.00146484 17.5793C0.00146484 16.9571 0.00146484 16.3349 0.00146484 15.7127C0.433909 15.4265 0.866353 15.1402 1.38746 14.7949C1.38746 12.4865 1.38902 10.0551 1.3828 7.62223C1.3828 7.47601 1.31902 7.32978 1.27857 7.18512C1.1308 6.65934 0.931686 6.14134 0.849242 5.60623C0.78702 5.20956 0.944131 4.78023 0.881908 4.38356C0.727909 3.38489 1.08257 2.62422 1.80591 1.97089C2.51524 1.32845 3.19657 0.658001 3.89035 0C4.04591 0 4.20146 0 4.35702 0C5.04457 0.662667 5.7819 1.28333 6.40101 2.00511C6.8039 2.47489 7.31257 3.10645 7.28457 3.64C7.21924 4.858 7.81501 6.17867 6.88479 7.31112C6.79301 7.42312 6.84746 7.66267 6.84746 7.84312C6.8459 9.96801 6.84435 12.0929 6.84746 14.2178C6.84746 14.49 6.87235 14.7607 6.88324 15.0002C7.74657 15.0002 8.51035 15.0002 9.28346 15.0002C9.28346 14.2738 9.28346 13.608 9.28346 12.9531C7.99079 12.5487 7.94257 12.4149 7.92235 10.9045C7.90368 9.48267 8.96768 9.63356 9.91968 9.53556C9.0019 6.84601 10.2215 5.13645 12.3028 3.71311C14.0092 2.55111 15.6177 1.24445 17.2681 0C17.4237 0 17.5792 0 17.7348 0C17.7643 0.0404445 17.7877 0.0933334 17.8266 0.121333C19.6372 1.45756 21.4526 2.79067 23.2617 4.12845C24.7317 5.21578 25.637 6.57845 25.343 8.50267C25.2932 8.82779 25.189 9.14356 25.1112 9.46245C27.0743 9.96334 27.0743 9.96334 27.0743 11.4458C27.0743 12.3962 26.8566 12.6405 25.735 12.9251C25.735 13.608 25.735 14.294 25.735 15.0173C26.547 15.0173 27.3092 15.0173 28.0714 15.0173C28.1057 14.9022 28.1446 14.8307 28.1446 14.7591C28.1508 12.376 28.1539 9.99134 28.1508 7.60823C28.1508 7.46045 28.0948 7.30956 28.059 7.16334C27.9252 6.63134 27.7448 6.10712 27.6639 5.56734C27.6048 5.16756 27.7183 4.74445 27.6717 4.34C27.5597 3.35223 27.9003 2.58378 28.6361 1.932C29.3299 1.316 29.9785 0.645556 30.6459 0C30.8014 0 30.957 0 31.1125 0C31.7877 0.642445 32.4472 1.30045 33.1394 1.92267C33.9965 2.69111 34.5441 5.82245 34.0277 6.83823C33.8099 7.26912 33.6574 7.77312 33.6325 8.25223C33.575 9.36445 33.6139 10.4798 33.6139 11.5951C33.6139 12.7307 33.6139 13.8647 33.6139 14.7638C34.1925 15.1605 34.597 15.4358 34.9999 15.7127C34.9999 16.3349 34.9999 16.9571 34.9999 17.5793C34.667 17.8811 34.3341 18.1845 33.911 18.5687C33.911 18.5531 33.9048 18.6807 33.9125 18.8098C33.9545 19.5471 33.8954 20.2191 33.0305 20.5007C32.9248 20.5349 32.8283 20.7807 32.8283 20.9285C32.8159 23.7751 32.819 26.6218 32.819 29.5027C34.1272 29.7563 33.8954 30.7814 33.9157 31.4611C34.3574 31.8905 34.6794 32.2031 34.9999 32.5143C34.9999 33.3418 34.9999 34.1709 34.9999 35C23.3348 35 11.6681 35 0.00146484 35C0.00146484 34.118 0.00146484 33.2376 0.00146484 32.3587C0.340576 32.1036 0.679686 31.85 1.08569 31.5451C1.07946 30.7378 0.920797 29.7485 2.16369 29.4934C2.16369 26.5051 2.16369 23.5605 2.16369 20.5427C0.897464 20.3265 1.09191 19.3169 1.08569 18.5593C0.665686 18.1813 0.334353 17.8796 0.00146484 17.5793ZM6.56746 29.5105C6.56746 28.2614 6.49901 27.0449 6.5939 25.8409C6.64679 25.1751 6.82257 24.4145 7.21301 23.9027C7.8119 23.114 8.62857 22.484 9.38768 21.826C9.5479 21.6876 9.89168 21.616 10.0908 21.6876C11.6666 22.2491 13.1132 24.4254 13.0977 26.1318C13.0883 27.2394 13.0961 28.3485 13.0961 29.4996C13.5068 29.4996 13.8288 29.4996 14.2441 29.4996C14.2441 28.2458 14.1772 27.0262 14.2706 25.8191C14.3235 25.1518 14.493 24.3896 14.8835 23.8778C15.4839 23.0907 16.3052 22.4654 17.069 21.812C17.2261 21.6767 17.5746 21.6254 17.7721 21.7C19.3681 22.2989 20.7868 24.4534 20.7681 26.1582C20.7557 27.2642 20.765 28.3702 20.765 29.498C21.1757 29.498 21.4977 29.498 21.9052 29.498C21.9052 28.2645 21.8368 27.0714 21.9317 25.8922C21.9877 25.1985 22.1401 24.402 22.543 23.8731C23.1574 23.0658 24.0146 22.4405 24.7923 21.7654C24.9183 21.6549 25.1937 21.6176 25.3617 21.6689C26.7959 22.1076 28.4354 24.3989 28.4354 25.9234C28.4354 27.1071 28.4354 28.2909 28.4354 29.484C28.8554 29.484 29.1728 29.484 29.5025 29.484C29.5025 26.4818 29.5025 23.5387 29.5025 20.5489C21.4883 20.5489 13.5208 20.5489 5.51124 20.5489C5.51124 23.5542 5.51124 26.516 5.51124 29.5074C5.86901 29.5105 6.16768 29.5105 6.56746 29.5105ZM17.4579 1.33778C16.9959 1.69245 16.5183 2.08445 16.0175 2.44222C14.7543 3.34445 13.4539 4.19845 12.2172 5.13334C10.7488 6.24401 10.3179 7.61756 10.8903 8.98956C11.0677 9.41734 11.3088 9.61334 11.8143 9.61023C15.5928 9.5869 19.3728 9.58223 23.1512 9.61334C23.747 9.61801 23.9803 9.3489 24.1546 8.86979C24.6368 7.53356 24.2479 6.24712 22.8619 5.20023C21.1103 3.878 19.2919 2.64134 17.4579 1.33778ZM1.12769 33.8598C12.0835 33.8598 22.9754 33.8598 33.8768 33.8598C33.8768 33.5051 33.8768 33.2049 33.8768 32.8611C22.949 32.8611 12.0555 32.8611 1.12769 32.8611C1.12769 33.2018 1.12769 33.502 1.12769 33.8598ZM33.8752 16.1825C22.9194 16.1825 12.029 16.1825 1.12769 16.1825C1.12769 16.548 1.12769 16.8498 1.12769 17.1998C12.057 17.1998 22.949 17.1998 33.8752 17.1998C33.8752 16.8482 33.8752 16.5465 33.8752 16.1825ZM2.21657 19.3714C12.4537 19.3714 22.6192 19.3714 32.7817 19.3714C32.7817 19.0074 32.7817 18.7056 32.7817 18.3665C22.5788 18.3665 12.4148 18.3665 2.21657 18.3665C2.21657 18.7196 2.21657 19.0214 2.21657 19.3714ZM2.21657 31.6774C12.4475 31.6774 22.613 31.6774 32.7832 31.6774C32.7832 31.3196 32.7832 31.0178 32.7832 30.6709C22.5819 30.6709 12.4163 30.6709 2.21657 30.6709C2.21657 31.0178 2.21657 31.3196 2.21657 31.6774ZM19.7181 29.5198C19.7181 28.4682 19.6357 27.4805 19.7368 26.5129C19.9079 24.8687 18.9388 23.9136 17.8094 23.0316C17.685 22.9351 17.3521 22.8962 17.279 22.9771C16.6148 23.7176 15.6317 24.4082 15.431 25.2747C15.1199 26.614 15.3486 28.0794 15.3486 29.5214C16.8015 29.5198 18.1952 29.5198 19.7181 29.5198ZM27.3668 29.5011C27.3668 28.4107 27.2906 27.3949 27.3839 26.3947C27.5348 24.7754 26.5283 23.8794 25.4426 23.0067C25.3414 22.9258 25.1112 22.8605 25.0319 22.9165C24.1452 23.5558 23.1543 24.2216 23.019 25.3649C22.8603 26.7105 22.9817 28.0887 22.9817 29.4996C24.4579 29.5011 25.8672 29.5011 27.3668 29.5011ZM7.66257 29.5027C9.13723 29.5027 10.545 29.5027 12.0508 29.5027C12.0508 28.4791 11.9668 27.4945 12.0695 26.5285C12.2421 24.8951 11.3228 23.9182 10.1701 23.0487C10.0379 22.9491 9.73768 22.8869 9.63501 22.9647C8.79035 23.6102 7.82435 24.2698 7.69835 25.382C7.5459 26.7276 7.66257 28.1042 7.66257 29.5027ZM24.5792 12.8769C19.8146 12.8769 15.1448 12.8769 10.4392 12.8769C10.4392 13.6173 10.4392 14.3002 10.4392 14.9987C15.1775 14.9987 19.8659 14.9987 24.5792 14.9987C24.5792 14.2676 24.5792 13.6033 24.5792 12.8769ZM2.5168 7.39823C2.5168 9.96023 2.5168 12.4756 2.5168 15.0018C3.61657 15.0018 4.65879 15.0018 5.68546 15.0018C5.68546 12.4258 5.68546 9.91045 5.68546 7.39823C4.59191 7.39823 3.56835 7.39823 2.5168 7.39823ZM29.2925 7.39356C29.2925 9.98356 29.2925 12.4818 29.2925 15.0142C30.3783 15.0142 31.4221 15.0142 32.483 15.0142C32.483 12.4491 32.483 9.93379 32.483 7.39356C31.3972 7.39356 30.3737 7.39356 29.2925 7.39356ZM9.06101 11.746C14.7015 11.746 20.3061 11.746 25.945 11.746C25.945 11.3758 25.945 11.0491 25.945 10.6789C20.3092 10.6789 14.703 10.6789 9.06101 10.6789C9.06101 11.0522 9.06101 11.3773 9.06101 11.746ZM3.33191 20.5458C3.33191 23.5838 3.33191 26.5456 3.33191 29.5074C3.69279 29.5074 3.99302 29.5074 4.33057 29.5074C4.33057 26.5036 4.33057 23.5418 4.33057 20.5458C3.98368 20.5458 3.68191 20.5458 3.33191 20.5458ZM30.6894 20.5442C30.6894 23.5885 30.6894 26.5487 30.6894 29.5058C31.055 29.5058 31.3552 29.5058 31.6834 29.5058C31.6834 26.502 31.6834 23.5402 31.6834 20.5442C31.3365 20.5442 31.0363 20.5442 30.6894 20.5442ZM4.10657 1.28178C3.36613 2.29911 2.07657 2.66778 1.87746 4.06C3.3708 4.06 4.79724 4.06 6.31079 4.06C6.14746 2.65689 4.84546 2.29911 4.10657 1.28178ZM30.9025 1.30045C30.1465 2.296 28.8679 2.67556 28.675 4.06312C30.1901 4.06312 31.6181 4.06312 33.1457 4.06312C32.9077 2.69111 31.6617 2.28511 30.9025 1.30045ZM6.26101 6.27201C6.26101 6.00289 6.26101 5.75867 6.26101 5.51134C4.79413 5.51134 3.36457 5.51134 1.88991 5.51134C1.91013 5.79289 1.92724 6.01378 1.94591 6.27201C3.40191 6.27201 4.80813 6.27201 6.26101 6.27201ZM28.7792 5.49423C28.6454 5.91734 28.5537 6.30156 29.1805 6.30312C30.4219 6.30778 31.6632 6.29067 32.9045 6.27512C32.9668 6.27356 33.0274 6.19423 33.1068 6.13823C33.0959 5.93601 33.085 5.73378 33.0725 5.49267C31.6321 5.49423 30.2197 5.49423 28.7792 5.49423Z" fill="#38404F"/>
<path d="M19.7182 29.5196C18.1953 29.5196 16.7999 29.5196 15.3486 29.5196C15.3486 28.0776 15.1199 26.6123 15.431 25.273C15.6317 24.4081 16.6148 23.7174 17.279 22.9754C17.3521 22.8945 17.6866 22.9334 17.8095 23.0298C18.9388 23.9134 19.9064 24.8669 19.7368 26.5112C19.6357 27.4803 19.7182 28.4681 19.7182 29.5196Z" fill="#FF6612"/>
<path d="M27.3668 29.5012C25.8672 29.5012 24.4579 29.5012 22.9832 29.5012C22.9832 28.0903 22.8619 26.7121 23.0205 25.3666C23.1543 24.2217 24.1468 23.5575 25.0334 22.9181C25.1112 22.8621 25.343 22.9259 25.4441 23.0084C26.5299 23.881 27.5363 24.777 27.3854 26.3963C27.2906 27.395 27.3668 28.4108 27.3668 29.5012Z" fill="#FF6612"/>
<path d="M7.66255 29.5026C7.66255 28.1042 7.54589 26.7275 7.69833 25.3835C7.82589 24.2713 8.79034 23.6117 9.63502 22.9662C9.73769 22.8884 10.0379 22.9506 10.1701 23.0502C11.3228 23.9197 12.2406 24.8966 12.0695 26.53C11.9668 27.496 12.0508 28.4806 12.0508 29.5042C10.545 29.5026 9.13723 29.5026 7.66255 29.5026Z" fill="#FF6612"/>
<path d="M31.4253 9.61502C31.4206 9.61502 31.4159 9.61502 31.4128 9.61502C31.4128 9.3848 31.4766 9.12813 31.3942 8.93368C31.3226 8.76257 31.0924 8.56035 30.9228 8.55257C30.7532 8.54324 30.439 8.73613 30.4188 8.87613C30.3519 9.32413 30.3472 9.79546 30.411 10.2435C30.4328 10.3928 30.7579 10.6261 30.901 10.5981C31.097 10.5608 31.2962 10.3368 31.4113 10.1439C31.4875 10.0101 31.4253 9.79391 31.4253 9.61502ZM31.4206 12.8288C31.4253 12.8288 31.4284 12.8288 31.4331 12.8288C31.4331 12.7012 31.4797 12.5441 31.4237 12.4508C31.2853 12.219 31.1001 12.0152 30.9337 11.799C30.7392 12.0152 30.4545 12.2035 30.3752 12.457C30.2803 12.7588 30.3036 13.1321 30.3923 13.4401C30.4468 13.6252 30.7221 13.8632 30.8995 13.8632C31.0721 13.8648 31.3024 13.6237 31.4035 13.4324C31.4875 13.2737 31.4206 13.0341 31.4206 12.8288Z" fill="white"/>
<path d="M11.5981 7.8681C11.9186 7.30344 12.0819 6.77144 12.435 6.44789C13.0775 5.85834 13.8163 5.36368 14.5552 4.8939C14.7061 4.79746 15.0359 4.98412 15.2832 5.04012C15.2194 5.28746 15.235 5.62656 15.0748 5.76345C14.5677 6.20056 13.9641 6.52567 13.4601 6.96744C13.1926 7.20233 12.9421 7.56788 12.8877 7.90855C12.8223 8.31766 12.8581 8.78432 12.3246 8.6801C12.0586 8.62565 11.8688 8.18543 11.5981 7.8681Z" fill="#38404F"/>
<path d="M19.2219 13.3887C19.4444 13.4042 19.687 13.3545 19.8426 13.4478C20.0106 13.5489 20.177 13.776 20.1941 13.9642C20.2081 14.1104 20.0106 14.4013 19.8815 14.4169C19.4039 14.4744 18.9108 14.4837 18.4348 14.4215C18.2886 14.4029 18.074 14.0918 18.0817 13.9253C18.0895 13.7542 18.3042 13.5209 18.4831 13.4478C18.7055 13.3576 18.9839 13.4011 19.2219 13.3887Z" fill="#38404F"/>
<path d="M22.3501 14.5196C22.0841 14.4714 21.7901 14.49 21.5972 14.3594C21.4525 14.2614 21.353 13.8056 21.3778 13.7931C21.6952 13.6314 22.0405 13.4183 22.3765 13.4229C22.7421 13.4276 23.1061 13.6438 23.4701 13.7667C23.397 13.9705 23.3783 14.2847 23.2383 14.3547C22.9785 14.4854 22.6472 14.4729 22.3501 14.5196Z" fill="#38404F"/>
<path d="M12.5191 14.4669C12.3386 14.4669 12.1193 14.5322 11.9871 14.4513C11.7942 14.3331 11.6635 14.1122 11.5079 13.9349C11.7973 13.756 12.0742 13.4558 12.3775 13.4247C12.8395 13.378 13.4866 13.1696 13.6375 13.9131C13.6671 14.0609 13.3995 14.3471 13.2051 14.442C13.0184 14.5338 12.7508 14.4622 12.5191 14.4622C12.5191 14.4638 12.5191 14.4653 12.5191 14.4669Z" fill="#38404F"/>
<path d="M15.7997 14.4854C15.5928 14.473 15.3517 14.5243 15.1899 14.4325C15.0157 14.3345 14.8337 14.1167 14.8088 13.9301C14.7901 13.787 14.9955 13.4899 15.1261 13.4743C15.6068 13.4167 16.1046 13.409 16.5837 13.4712C16.7252 13.4899 16.9306 13.8165 16.9166 13.9845C16.901 14.1541 16.6739 14.3687 16.4919 14.4403C16.2897 14.5196 16.033 14.459 15.7997 14.459C15.7997 14.4683 15.7997 14.4761 15.7997 14.4854Z" fill="#38404F"/>
<path d="M3.60415 9.11238C3.60415 8.93194 3.53882 8.71105 3.6197 8.58193C3.75192 8.37349 3.96191 8.13082 4.17346 8.09037C4.30879 8.06548 4.59656 8.35482 4.65567 8.55082C4.74122 8.83394 4.75056 9.18238 4.66189 9.46394C4.57945 9.7315 4.33057 9.94617 4.1548 10.1857C3.96969 9.95706 3.76748 9.73928 3.61037 9.4935C3.55437 9.40172 3.60415 9.2415 3.60415 9.11238Z" fill="#38404F"/>
<path d="M3.57922 5.91718C3.68656 5.57341 3.71301 5.24052 3.88879 5.02896C3.97901 4.92007 4.53592 5.01341 4.53903 5.04296C4.58725 5.63252 4.59814 6.22674 4.56236 6.8163C4.56081 6.85519 3.97746 6.96407 3.92146 6.87541C3.73945 6.59385 3.68034 6.23607 3.57922 5.91718Z" fill="#38404F"/>
<path d="M31.4252 9.61511C31.4252 9.794 31.489 10.0102 31.4097 10.1424C31.2946 10.3353 31.0954 10.5593 30.8994 10.5967C30.7548 10.6231 30.4296 10.3913 30.4094 10.242C30.3456 9.794 30.3488 9.32267 30.4172 8.87466C30.4374 8.73622 30.7517 8.54177 30.9212 8.55111C31.0908 8.56044 31.321 8.76111 31.3926 8.93222C31.475 9.12822 31.4112 9.38333 31.4112 9.61356C31.4159 9.61511 31.4206 9.61511 31.4252 9.61511Z" fill="#38404F"/>
<path d="M31.4206 12.8285C31.4206 13.0339 31.4875 13.2734 31.4035 13.4336C31.3039 13.6234 31.0721 13.8645 30.8995 13.8645C30.7221 13.863 30.4452 13.6265 30.3923 13.4414C30.3036 13.1334 30.2803 12.7585 30.3752 12.4583C30.4545 12.2063 30.7392 12.0181 30.9337 11.8003C31.1001 12.015 31.2868 12.2187 31.4237 12.4521C31.4797 12.547 31.4331 12.7025 31.4331 12.8301C31.4284 12.8285 31.4253 12.8285 31.4206 12.8285Z" fill="#38404F"/>
</svg>
