<?xml version="1.0" encoding="utf-8"?>
<!-- Generator: Adobe Illustrator 24.1.0, SVG Export Plug-In . SVG Version: 6.00 Build 0)  -->
<svg version="1.1" id="Capa_1" xmlns="http://www.w3.org/2000/svg" xmlns:xlink="http://www.w3.org/1999/xlink" x="0px" y="0px"
	 viewBox="0 0 71 74" style="enable-background:new 0 0 71 74;" xml:space="preserve">
<style type="text/css">
	.st0{fill:#62637C;}
	.st1{fill:#FF6612;}
	.st2{fill:#62637C;stroke:#62637C;stroke-width:0.9758;stroke-miterlimit:10;}
	.st3{fill:#62637C;stroke:#62637C;stroke-miterlimit:10;}
	.st4{clip-path:url(#SVGID_2_);fill:#62637C;stroke:#62637C;stroke-miterlimit:10;}
	.st5{clip-path:url(#SVGID_2_);fill:#62637C;}
	.st6{clip-path:url(#SVGID_2_);fill:#FF6612;}
</style>
<g>
	<g>
		<g>
			<path class="st3" d="M68.1,24.8l-2.3-3.4c-0.2-0.3-0.6-0.5-1-0.5L60.4,21c-0.4,0-0.7,0.2-0.9,0.5L59,22.2l-4.6,2.9
				c-0.3,0.2-0.5,0.5-0.5,0.9l-0.1,1.1H52l-3.5-2.9c-0.3-0.2-0.7-0.3-1-0.2c-0.4,0.1-0.7,0.3-0.8,0.7l-1.5,3.2l-14-6l0.8-3.1
				c0.2-0.6-0.2-1.2-0.8-1.4L30.1,17l-1.9-2.9l0.3-0.1c0.4-0.1,0.7-0.3,0.8-0.7c0.1-0.3,0.1-0.7-0.1-1l-0.7-1.2l2.5-5.2
				c0.3-0.5,0.1-1.2-0.5-1.5L28.3,3c-0.2-0.1-0.4-0.2-0.7-0.2l-4.8,0.3l-6-2.6c-0.3-0.2-0.7-0.1-1.1,0.1l-3.3,1.9
				c-0.3,0.2-0.5,0.5-0.6,0.9s0.1,0.7,0.4,1L14.1,6l0.1,4c0,0.3,0.1,0.6,0.3,0.8l3,3.2L15,18.5c-0.1,0.2-0.1,0.4-0.1,0.5l0,0.5
				l-4.3,4.8l-2.2-0.7c-0.6-0.2-1.3,0.1-1.5,0.7l-1.2,3.6c-0.2,0.5,0,1,0.4,1.3l0.6,0.5l1.6,3.3l0,0.7l-4.8,1.7
				c-0.4,0.2-0.8,0.6-0.8,1c0,0.5,0.2,0.9,0.7,1.1l1.5,0.7c-0.2,0.1-0.4,0.4-0.4,0.6c-0.1,0.3,0,0.7,0.1,1l1.8,2.7
				c0.1,0.2,0.3,0.3,0.5,0.4l2.9,1.4c0.5,0.2,1.1,0.1,1.5-0.3l1.3-1.7l0.7,1.6l-0.4,2.2c0,0.2,0,0.4,0.1,0.6l9.6,26
				c0.2,0.5,0.6,0.8,1.1,0.8c0.1,0,0.3,0,0.4-0.1l2.4-0.9c0.3-0.1,0.5-0.3,0.6-0.6l0.5-1l0.8-1l2-2.4c0.1-0.2,0.2-0.3,0.3-0.5l1.1-6
				c0-0.2,0-0.4,0-0.6L31,58.8l1.1-3.2l0.9-0.6l1.1-0.1c0.3,0,0.6-0.2,0.8-0.5l1.4-1.9c0.5-0.2,1-0.3,1.4-0.7
				c0.4-0.4,0.9-0.9,1.3-1.3c0.3-0.3,0.7-0.6,0.9-1.1c0.2-0.5,0.4-1,0.6-1.5l4.2-2.3c0.3-0.2,0.6-0.5,0.6-0.9l0.2-1.7l1.6-1.2
				l2.1,0.4c0.4,0.1,0.8-0.1,1.1-0.4c0.3-0.3,0.4-0.7,0.3-1.1l-2-7.3l2.5-1l1.7,1.1c0.2,0.1,0.3,0.2,0.5,0.2l1.2,0.1L53,35.9
				c-0.2,0.4-0.3,0.8-0.1,1.2c0.2,0.4,0.6,0.6,1.1,0.6l0.9,0l2.1,2.9c0.3,0.4,0.8,0.6,1.2,0.4c0.5-0.1,0.8-0.5,0.9-1l0.6-3.6l1,0.2
				c0.3,0.1,0.6,0,0.9-0.2c0.3-0.2,0.4-0.5,0.5-0.8l0.6-4l0.6-0.7c0.1-0.2,0.2-0.4,0.2-0.6l0.1-0.7l3.5-1.2c0.4-0.1,0.7-0.5,0.8-0.9
				l0.4-1.9C68.4,25.4,68.3,25,68.1,24.8z M65.7,26.4l-3.5,1.2c-0.4,0.1-0.7,0.5-0.8,1l-0.2,1.1l-0.6,0.7c-0.1,0.2-0.2,0.3-0.2,0.5
				L60,34.1l-1-0.2c-0.3-0.1-0.6,0-0.9,0.2c-0.3,0.2-0.4,0.5-0.5,0.8L57.3,37l-0.8-1.1c-0.1-0.1-0.2-0.2-0.3-0.3l1.3-1.9
				c0.2-0.3,0.3-0.8,0.1-1.2c-0.2-0.4-0.5-0.6-0.9-0.7l-2.9-0.3l-2-1.3c-0.3-0.2-0.7-0.3-1.1-0.1l-4,1.7c-0.5,0.2-0.8,0.8-0.7,1.4
				l1.8,6.5l-0.8-0.2c-0.3-0.1-0.7,0-0.9,0.2l-2.4,1.8c-0.3,0.2-0.4,0.5-0.5,0.8L43,43.8L39,46c-0.2,0.1-0.4,0.3-0.5,0.6l-0.8,1.9
				L36.1,50L35,50.5c-0.2,0.1-0.4,0.2-0.5,0.4l-1.3,1.7l-0.9,0.1c-0.2,0-0.3,0.1-0.5,0.2l-1.5,0.9c-0.2,0.1-0.4,0.4-0.5,0.6l-1.3,4
				c-0.1,0.2-0.1,0.5,0,0.7l0.6,1.8l-1,5.4l-1.8,2.2l-0.9,1.1c-0.1,0.1-0.1,0.1-0.1,0.2L25,70.6l-0.8,0.3l-9.1-24.6l0.4-2.2
				c0-0.2,0-0.5-0.1-0.7l-1-2.3l0.1-1.9c0-0.5-0.3-1-0.8-1.1c-0.5-0.2-1,0-1.3,0.4l-2.5,3.3L8.1,41l-0.8-1.4L8,39.3
				c0.4-0.2,0.6-0.6,0.6-1.1c0-0.4-0.3-0.8-0.7-1l-0.6-0.3l-0.5-0.2l3-1.1c0.5-0.2,0.8-0.6,0.8-1.1l0-1.8c0-0.2,0-0.3-0.1-0.5
				l-1.8-3.7c-0.1-0.2-0.2-0.3-0.3-0.4l-0.2-0.1l0.6-1.7l1.8,0.6c0.4,0.1,0.9,0,1.2-0.3l5.2-5.7c0.2-0.2,0.3-0.5,0.3-0.8l0-0.6
				l2.7-4.9c0.2-0.4,0.2-1-0.2-1.4l-3.3-3.5l-0.1-4.1c0-0.3-0.2-0.6-0.4-0.9l-1-0.9l1.3-0.8l5.7,2.5c0.2,0.1,0.4,0.1,0.5,0.1
				l4.8-0.3l1,0.6l-2.3,4.8c-0.2,0.3-0.2,0.8,0,1.1l0.2,0.3L26,12.2c-0.4,0.1-0.7,0.4-0.8,0.7c-0.1,0.4-0.1,0.8,0.1,1.1l3,4.6
				c0.1,0.2,0.4,0.4,0.6,0.5l0.5,0.2l-0.8,3c-0.1,0.6,0.1,1.2,0.7,1.4l16,6.8c0.6,0.3,1.3,0,1.5-0.6l1.3-2.8l2.7,2.2
				c0.2,0.2,0.5,0.3,0.7,0.3h3.3c0.6,0,1.1-0.5,1.2-1.1l0.1-1.6l4.3-2.8c0.1-0.1,0.3-0.2,0.3-0.3l0.2-0.4l3.2-0.1l1.6,2.4L65.7,26.4
				z"/>
		</g>
	</g>
	<g>
		<path class="st1" d="M21.8,43.6c-1.6,0-3.3,0.5-3.3,1.5c0,1,1.7,1.5,3.3,1.5c1.6,0,3.3-0.5,3.3-1.5S23.4,43.6,21.8,43.6z"/>
		<path class="st1" d="M21.8,33.4c-2.6,0-4.6,2.1-4.6,4.6c0,1.6,0.8,3.3,2.2,5.1c1.1,1.3,2.2,2.2,2.2,2.2c0,0,0.1,0.1,0.2,0.1
			c0.1,0,0.1,0,0.2-0.1c0,0,1.1-0.9,2.2-2.2c1.5-1.8,2.2-3.5,2.2-5.1C26.5,35.5,24.4,33.4,21.8,33.4z M23.6,38c0,1-0.8,1.7-1.7,1.7
			c-1,0-1.7-0.8-1.7-1.7s0.8-1.7,1.7-1.7C22.8,36.3,23.6,37.1,23.6,38z"/>
		<path class="st1" d="M34.2,35.9c-0.5-0.2-1.1-0.3-1.7-0.3c-0.7,0-1.3,0.1-1.7,0.3c-0.5,0.2-0.8,0.6-0.8,0.9s0.3,0.7,0.8,0.9
			c0.5,0.2,1.1,0.3,1.7,0.3c0.7,0,1.3-0.1,1.7-0.3c0.5-0.2,0.8-0.6,0.8-0.9C35.1,36.4,34.8,36.1,34.2,35.9z"/>
		<g>
			<path class="st1" d="M21.8,45.9c-1.4,0-2.9-0.4-3.2-1.2c0,0.1-0.1,0.2-0.1,0.3c0,1,1.7,1.5,3.3,1.5c1.6,0,3.3-0.5,3.3-1.5
				c0-0.1,0-0.2-0.1-0.3C24.7,45.5,23.2,45.9,21.8,45.9z"/>
			<path class="st1" d="M34.2,37c-0.5,0.2-1.1,0.3-1.7,0.3c-0.7,0-1.3-0.1-1.7-0.3c-0.4-0.2-0.6-0.3-0.8-0.6
				c-0.1,0.1-0.1,0.2-0.1,0.3c0,0.4,0.3,0.7,0.8,0.9c0.5,0.2,1.1,0.3,1.7,0.3c0.7,0,1.3-0.1,1.7-0.3c0.5-0.2,0.8-0.6,0.8-0.9
				c0-0.1,0-0.2-0.1-0.3C34.8,36.7,34.6,36.9,34.2,37z"/>
		</g>
		<path class="st1" d="M32.5,27.7c-2,0-3.6,1.6-3.6,3.6c0,1.2,0.6,2.6,1.7,3.9c0.8,1,1.7,1.7,1.7,1.7c0.1,0,0.1,0.1,0.2,0.1
			s0.1,0,0.2-0.1c0,0,0.9-0.7,1.7-1.7c1.2-1.4,1.7-2.7,1.7-3.9C36.1,29.3,34.5,27.7,32.5,27.7z M33.8,31.3c0,0.7-0.6,1.3-1.3,1.3
			c-0.7,0-1.3-0.6-1.3-1.3c0-0.7,0.6-1.3,1.3-1.3C33.2,30,33.8,30.6,33.8,31.3z"/>
		<g>
			<path class="st1" d="M21.8,33.4c-0.2,0-0.4,0-0.5,0c2.3,0.3,4.1,2.2,4.1,4.6c0,1.6-0.8,3.3-2.2,5.1c-0.7,0.9-1.5,1.5-1.9,1.9
				c0.2,0.2,0.3,0.3,0.4,0.3c0,0,0.1,0.1,0.2,0.1c0.1,0,0.1,0,0.2-0.1c0,0,1.1-0.9,2.2-2.2c1.5-1.8,2.2-3.5,2.2-5.1
				C26.5,35.5,24.4,33.4,21.8,33.4z"/>
			<path class="st1" d="M32.5,27.7c-0.2,0-0.4,0-0.5,0c1.8,0.3,3.1,1.8,3.1,3.6c0,1.2-0.6,2.6-1.7,3.9c-0.5,0.6-1,1.1-1.4,1.4
				c0.2,0.2,0.3,0.3,0.4,0.3c0.1,0,0.1,0.1,0.2,0.1s0.1,0,0.2-0.1c0,0,0.9-0.7,1.7-1.7c1.2-1.4,1.7-2.7,1.7-3.9
				C36.1,29.3,34.5,27.7,32.5,27.7z"/>
		</g>
		<path class="st1" d="M26.1,45.4c-0.2,0-0.3-0.1-0.3-0.3c0-0.2,0.1-0.3,0.3-0.3l0.4,0c0,0,0,0,0,0c0.2,0,0.3,0.1,0.3,0.3
			c0,0.2-0.1,0.3-0.3,0.3L26.1,45.4C26.1,45.4,26.1,45.4,26.1,45.4z M27.6,45.4c-0.2,0-0.3-0.1-0.3-0.3c0-0.2,0.1-0.3,0.3-0.3l0.4,0
			c0,0,0,0,0,0c0.2,0,0.3,0.1,0.3,0.3c0,0.2-0.1,0.3-0.3,0.3L27.6,45.4C27.6,45.4,27.6,45.4,27.6,45.4z M29.1,45.4
			c-0.2,0-0.3-0.1-0.3-0.3c0-0.2,0.1-0.3,0.3-0.3l0.4,0c0,0,0,0,0,0c0.2,0,0.3,0.1,0.3,0.3c0,0.2-0.1,0.3-0.3,0.3L29.1,45.4
			C29.1,45.4,29.1,45.4,29.1,45.4z M30.5,45.4c-0.2,0-0.3-0.1-0.3-0.3c0-0.2,0.1-0.3,0.3-0.3l0.4,0c0,0,0,0,0,0
			c0.2,0,0.3,0.1,0.3,0.3c0,0.2-0.1,0.3-0.3,0.3L30.5,45.4C30.5,45.4,30.5,45.4,30.5,45.4z M32,45.4c-0.2,0-0.3-0.1-0.3-0.3
			c0-0.2,0.1-0.3,0.3-0.3l0.4,0c0,0,0,0,0,0c0.2,0,0.3,0.1,0.3,0.3c0,0.2-0.1,0.3-0.3,0.3L32,45.4C32,45.4,32,45.4,32,45.4z
			 M33.5,45.4c-0.2,0-0.3-0.1-0.3-0.3c0-0.2,0.1-0.3,0.3-0.3l0.1,0c0.1,0,0.2,0,0.3,0c0.2,0,0.3,0.1,0.3,0.2c0,0.2-0.1,0.3-0.2,0.3
			C33.8,45.4,33.6,45.4,33.5,45.4L33.5,45.4C33.5,45.4,33.5,45.4,33.5,45.4z M34.9,44.9c-0.1,0-0.2,0-0.2-0.1
			c-0.1-0.1-0.1-0.3,0.1-0.4c0.1-0.1,0.2-0.1,0.3-0.2c0.1-0.1,0.3-0.1,0.4,0c0.1,0.1,0.1,0.3,0,0.4c-0.1,0.1-0.2,0.2-0.3,0.3
			C35,44.9,34.9,44.9,34.9,44.9z M35.7,43.8C35.7,43.8,35.7,43.8,35.7,43.8c-0.2-0.1-0.3-0.2-0.3-0.4c0-0.1,0.1-0.2,0.1-0.3
			c0-0.2,0.2-0.2,0.3-0.2c0.2,0,0.2,0.2,0.2,0.3c0,0.1-0.1,0.3-0.1,0.4C36,43.7,35.9,43.8,35.7,43.8z M35.8,42.4
			c-0.1,0-0.2-0.1-0.3-0.2c0-0.1-0.1-0.2-0.1-0.3c-0.1-0.1,0-0.3,0.1-0.4c0.1-0.1,0.3,0,0.4,0.1C36,41.7,36,41.9,36,42
			C36.1,42.2,36,42.3,35.8,42.4C35.8,42.4,35.8,42.4,35.8,42.4z M35,41.2c-0.1,0-0.1,0-0.2-0.1c-0.1-0.1-0.2-0.1-0.3-0.2
			c-0.1-0.1-0.2-0.2-0.1-0.4c0.1-0.1,0.2-0.2,0.4-0.1c0.1,0.1,0.2,0.1,0.3,0.2c0.1,0.1,0.1,0.3,0,0.4C35.1,41.1,35.1,41.2,35,41.2z
			 M33.6,40.7C33.6,40.7,33.6,40.7,33.6,40.7c0,0-0.1,0-0.1,0h-0.3c-0.2,0-0.3-0.1-0.3-0.3c0-0.2,0.1-0.3,0.3-0.3h0.3
			c0,0,0.1,0,0.1,0c0.2,0,0.3,0.1,0.3,0.3C33.9,40.5,33.8,40.7,33.6,40.7z M32.2,40.7h-0.4c-0.2,0-0.3-0.1-0.3-0.3
			c0-0.2,0.1-0.3,0.3-0.3h0.4c0.2,0,0.3,0.1,0.3,0.3C32.4,40.5,32.3,40.7,32.2,40.7z M30.7,40.7h-0.4c-0.2,0-0.3-0.1-0.3-0.3
			c0-0.2,0.1-0.3,0.3-0.3h0.4c0.2,0,0.3,0.1,0.3,0.3C31,40.5,30.8,40.7,30.7,40.7z M29.2,40.7h-0.4c-0.2,0-0.3-0.1-0.3-0.3
			c0-0.2,0.1-0.3,0.3-0.3h0.4c0.2,0,0.3,0.1,0.3,0.3C29.5,40.5,29.4,40.7,29.2,40.7z M27.8,40.4c-0.1,0-0.1,0-0.1,0
			c-0.1-0.1-0.2-0.2-0.3-0.3c-0.1-0.1-0.1-0.3,0-0.4c0.1-0.1,0.3-0.1,0.4,0c0.1,0.1,0.2,0.1,0.2,0.2c0.1,0.1,0.2,0.3,0.1,0.4
			C28,40.3,27.9,40.4,27.8,40.4z M27,39.2c-0.1,0-0.2-0.1-0.3-0.2c0-0.1,0-0.3,0-0.4l0,0c0-0.2,0.1-0.3,0.3-0.3c0,0,0,0,0,0
			c0.2,0,0.3,0.1,0.3,0.3l0,0c0,0.1,0,0.2,0,0.3C27.3,39,27.2,39.2,27,39.2C27,39.2,27,39.2,27,39.2z M27.3,37.8
			c-0.1,0-0.1,0-0.2-0.1c-0.1-0.1-0.2-0.3-0.1-0.4c0.1-0.1,0.2-0.2,0.3-0.3c0.1-0.1,0.3-0.1,0.4,0c0.1,0.1,0.1,0.3,0,0.4
			c-0.1,0.1-0.1,0.1-0.2,0.2C27.5,37.8,27.4,37.8,27.3,37.8z M28.5,37.1c-0.1,0-0.3-0.1-0.3-0.2c0-0.2,0.1-0.3,0.2-0.3
			c0.1,0,0.2,0,0.3,0h0.1c0.2,0,0.3,0.1,0.3,0.3s-0.1,0.3-0.3,0.3h-0.1C28.7,37.1,28.6,37.1,28.5,37.1
			C28.6,37.1,28.5,37.1,28.5,37.1z"/>
	</g>
</g>
</svg>
