<?xml version="1.0" encoding="utf-8"?>
<!-- Generator: Adobe Illustrator 24.1.0, SVG Export Plug-In . SVG Version: 6.00 Build 0)  -->
<svg version="1.1" id="Capa_1" xmlns="http://www.w3.org/2000/svg" xmlns:xlink="http://www.w3.org/1999/xlink" x="0px" y="0px"
	 viewBox="0 0 71 74" style="enable-background:new 0 0 71 74;" xml:space="preserve">
<style type="text/css">
	.st0{fill:#62637C;}
	.st1{fill:#FF6612;}
	.st2{fill:#62637C;stroke:#62637C;stroke-width:0.9758;stroke-miterlimit:10;}
	.st3{clip-path:url(#SVGID_2_);fill:#62637C;stroke:#62637C;stroke-miterlimit:10;}
	.st4{clip-path:url(#SVGID_2_);fill:#62637C;}
	.st5{clip-path:url(#SVGID_2_);fill:#FF6612;}
</style>
<g>
	<path class="st2" d="M35.5,65.6c-0.2,0-0.3,0-0.5-0.1l-16.7-8.7l-16,8.7c-0.3,0.2-0.7,0.2-1,0C1,65.3,0.9,65,0.9,64.6V18.4
		c0-0.4,0.2-0.7,0.5-0.9l16.4-9c0.3-0.2,0.7-0.2,0.9,0l17.2,9c0.5,0.3,0.7,0.9,0.4,1.4c-0.3,0.5-0.9,0.7-1.4,0.4l-16.7-8.7L2.9,19
		v43.9l14.9-8.2c0.3-0.2,0.7-0.2,0.9,0l17.2,9c0.5,0.3,0.7,0.9,0.4,1.4C36.2,65.4,35.9,65.6,35.5,65.6z"/>
	<path class="st2" d="M18.3,56.6c-0.6,0-1-0.5-1-1V37c0-0.6,0.5-1,1-1c0.6,0,1,0.5,1,1v18.6C19.3,56.2,18.9,56.6,18.3,56.6z"/>
	<path class="st2" d="M18.3,29.2c-0.6,0-1-0.5-1-1V9.4c0-0.6,0.5-1,1-1c0.6,0,1,0.5,1,1v18.8C19.3,28.7,18.9,29.2,18.3,29.2z"/>
	<path class="st2" d="M69.1,65.6c-0.2,0-0.3,0-0.5-0.1l-16-8.7L36,65.5c-0.3,0.2-0.7,0.2-1,0c-0.3-0.2-0.5-0.5-0.5-0.9V45.5
		c0-0.6,0.5-1,1-1c0.6,0,1,0.5,1,1v17.5l15.7-8.2c0.3-0.2,0.7-0.2,0.9,0l14.9,8.2V19l-15.4-8.4L36.5,19v18.8c0,0.6-0.5,1-1,1
		c-0.6,0-1-0.5-1-1V18.4c0-0.4,0.2-0.7,0.5-0.9l17.2-9c0.3-0.2,0.7-0.2,0.9,0l16.4,9c0.3,0.2,0.5,0.5,0.5,0.9v46.2
		c0,0.4-0.2,0.7-0.5,0.9C69.5,65.6,69.3,65.6,69.1,65.6z"/>
	<path class="st2" d="M52.7,56.6c-0.6,0-1-0.5-1-1V40.7c0-0.6,0.5-1,1-1c0.6,0,1,0.5,1,1v14.9C53.7,56.2,53.3,56.6,52.7,56.6z"/>
	<path class="st2" d="M52.7,33.4c-0.6,0-1-0.5-1-1v-23c0-0.6,0.5-1,1-1c0.6,0,1,0.5,1,1v23C53.7,33,53.3,33.4,52.7,33.4z"/>
	<path class="st1" d="M11.8,44.1c-2,0-3.6-1.6-3.6-3.6S9.8,37,11.8,37c2,0,3.6,1.6,3.6,3.6S13.8,44.1,11.8,44.1z"/>
	<path class="st1" d="M38.6,42.9c-0.7,0-1.4,0-2.1-0.1c-3.7-0.3-6.2-3.3-8.5-6c-2.1-2.6-4-4.8-6.5-4.6c-5.2,0.5-6.9,6.8-7,6.8
		c-0.1,0.5-0.7,0.8-1.2,0.7c-0.5-0.1-0.8-0.7-0.7-1.2c0.1-0.3,2.2-7.6,8.7-8.3c3.5-0.4,5.9,2.5,8.2,5.3c2.1,2.5,4.2,5,7.1,5.3
		c7.3,0.6,13.9-2.3,19.7-8.8c0.4-0.4,1-0.4,1.4-0.1c0.4,0.4,0.4,1,0.1,1.4C52.2,39.7,45.7,42.9,38.6,42.9z"/>
	<path class="st1" d="M58.9,34.2c-2,0-3.5-1.6-3.5-3.5c0-2,1.6-3.5,3.5-3.5c2,0,3.5,1.6,3.5,3.5C62.4,32.7,60.8,34.2,58.9,34.2z"/>
	<path class="st2" d="M6,30.1c-0.6,0-1-0.5-1-1v-7.8c0-0.4,0.2-0.7,0.5-0.9l6.4-3.7c0.5-0.3,1.1-0.1,1.4,0.4
		c0.3,0.5,0.1,1.1-0.4,1.4L7,21.9v7.3C7,29.7,6.5,30.1,6,30.1z"/>
	<path class="st2" d="M64.8,57.5c-0.2,0-0.4,0-0.5-0.1l-5.1-3c-0.5-0.3-0.6-0.9-0.4-1.4c0.3-0.5,0.9-0.6,1.4-0.4l3.6,2.1v-6.9
		c0-0.6,0.5-1,1-1c0.6,0,1,0.5,1,1v8.6c0,0.4-0.2,0.7-0.5,0.9C65.1,57.5,65,57.5,64.8,57.5z"/>
	<path class="st2" d="M48.5,36.1c-0.6,0-1-0.5-1-1v-9c0-0.6,0.5-1,1-1c0.6,0,1,0.5,1,1v9C49.5,35.6,49.1,36.1,48.5,36.1z"/>
	<path class="st2" d="M48.5,54.2c-0.6,0-1-0.5-1-1v-9c0-0.6,0.5-1,1-1c0.6,0,1,0.5,1,1v9C49.5,53.8,49.1,54.2,48.5,54.2z"/>
	<path class="st2" d="M21.9,44.6c-0.6,0-1-0.5-1-1v-8.8c0-0.6,0.5-1,1-1c0.6,0,1,0.5,1,1v8.8C22.9,44.1,22.5,44.6,21.9,44.6z"/>
	<path class="st2" d="M21.9,27.9c-0.6,0-1-0.5-1-1v-8.8c0-0.6,0.5-1,1-1c0.6,0,1,0.5,1,1v8.8C22.9,27.5,22.5,27.9,21.9,27.9z"/>
</g>
</svg>
